<svg version="1.1" id="oao-navi-search-icon" xmlns="http://www.w3.org/2000/svg" xmlns:xlink="http://www.w3.org/1999/xlink" x="0px" y="0px" viewBox="0 0 26 26" xml:space="preserve" width="26"  height="26" >
<g id="dark">
	<path class="oao-navi-icon-main" d="M25.7,24.1l-8.2-8.6c1.2-1.6,2-3.6,2-5.8c0-5.4-4.4-9.7-9.7-9.7S0,4.4,0,9.7
		s4.4,9.7,9.7,9.7c2.4,0,4.6-0.9,6.3-2.3l8.2,8.5c0.2,0.2,0.5,0.3,0.8,0.3s0.5-0.1,0.8-0.3C26.1,25.3,26.1,24.6,25.7,24.1z
		 M9.7,17.3c-4.2,0-7.5-3.4-7.5-7.5c0-4.2,3.4-7.5,7.5-7.5c4.2,0,7.5,3.4,7.5,7.5C17.3,13.9,13.9,17.3,9.7,17.3z" fill="#001B41"></path>
	<path class="oao-navi-icon-fill" d="M25.7,24.1l-8.2-8.6c1.2-1.6,2-3.6,2-5.8c0-5.4-4.4-9.7-9.7-9.7S0,4.4,0,9.7
		s4.4,9.7,9.7,9.7c2.4,0,4.6-0.9,6.3-2.3l8.2,8.5c0.2,0.2,0.5,0.3,0.8,0.3s0.5-0.1,0.8-0.3C26.1,25.3,26.1,24.6,25.7,24.1z" fill="none"></path>
</g>
</svg>